<svg xmlns="http://www.w3.org/2000/svg" viewBox="0 0 48 48" fill="none">
  <!-- Background rounded square -->
  <rect width="48" height="48" rx="11" fill="#1B4332"/>
  <!-- Grass blades (lime green) -->
  <path d="M11 37 C9 29 13 20 11 13 C15 17 15 26 13 37Z" fill="#95D5B2"/>
  <path d="M24 38 C22 26 24 16 24 9  C26 16 26 26 24 38Z" fill="#95D5B2"/>
  <path d="M37 37 C35 26 33 17 37 13 C41 20 39 29 37 37Z" fill="#95D5B2"/>
  <!-- Ground strip -->
  <rect x="7" y="37" width="34" height="3" rx="1.5" fill="#95D5B2" opacity="0.35"/>
  <!-- Orange spark / teriyaki flame -->
  <circle cx="38" cy="11" r="5.5" fill="#FF6B35"/>
  <path d="M38 7.5 Q40.5 10 38 14 Q35.5 10 38 7.5Z" fill="#F5F1E8" opacity="0.55"/>
</svg>
